# xmcd CD database file
#
# Track frame offsets:
#	150
#	43307
#	73315
#	97525
#	134315
#	162375
#
# Disc length: 2474 seconds
#
# Revision: 2
# Processed by: cddbd v1.5.1PL2 Copyright (c) Steve Scherf et al.
# Submitted via: CDex 1.60beta1
#
DISCID=4f09a806
DTITLE=Pepper Adams=Donald Byrd - Out Of This World
DYEAR=1961
DGENRE=Jazz
TTITLE0=Out Of This World
TTITLE1=Curro's
TTITLE2=It's A Beautiful Evening
TTITLE3=Mr. Lucky Theme
TTITLE4=Bird House
TTITLE5=Day Dreams
EXTD=YEAR: 1961
EXTT0=
EXTT1=
EXTT2=
EXTT3=
EXTT4=
EXTT5=
PLAYORDER=
